<svg id="Layer_1" data-name="Layer 1" xmlns="http://www.w3.org/2000/svg" viewBox="0 0 400 169.34"><defs><style>.cls-1{isolation:isolate;}.cls-2{fill:#690a18;}.cls-3{fill:#0a4b7d;}.cls-4{fill:#500816;}</style></defs><g class="cls-1"><path class="cls-2" d="M160,79.41V99.05h-14.1V41.93h3V96H157V76.4h10a15.91,15.91,0,0,0,9.21-2.53c3.91-2.36,6-7.17,6-13.44C182.18,50.33,176.47,45,166,45H154.31V65.24h10.43c4.24,0,5.87-1.31,5.87-4.81,0-2.85-1.39-4.24-4.24-4.24h-6.19v6.6l-3,.08V53.34h9.21c4.48,0,7,2.61,7,7.09,0,5.21-2.85,7.82-8.64,7.82h-13.2V41.93H166c11.82,0,19.07,6.85,19.07,18.5,0,12.06-6.6,19-18,19Zm-5.71-5.62V94.16h-2.77V70.94h13.69c7.58,0,11.24-3.26,11.24-10.1,0-6.44-3.5-10.19-9.12-10.19H157.16V47.72h10.19c4.64,0,8.64,2.12,10.59,6a15.67,15.67,0,0,1,1.47,7.09c0,8.47-4.73,13-14.18,13Z"/><path class="cls-2" d="M219.82,99.05,208.66,78.11H205.8V99.05H191.63V42h2.93V96.12h8.23V75.26l7.58-.08,11.24,20.94H231l-9-17L224.63,78l11.24,21ZM197.17,42h14.42c9.37,0,16,3.1,19.31,8.89a19.38,19.38,0,0,1,2.12,9c0,10-5.22,16-15,17.68l8.88,16.54h-3.34L213.38,75.34l2.2-.25c9.21-1,14.5-6.35,14.5-15.15,0-9.7-6.68-15-18.49-15H200.1V94.08h-2.93ZM210.94,69.8c9.2,0,13.52-3,13.52-9.45,0-6.2-4.23-9.7-11.49-9.7h-7.25v2.77h6.36c4.23,0,7,1,8.39,3a5.28,5.28,0,0,1,1.06,3.5c0,4.64-3.83,7.17-11.08,7.17h-7.74v-8h3v5.06h4.73c5.46,0,8.15-1.39,8.15-4.24,0-2.44-2.2-3.67-6.52-3.67h-9.37V47.72H213c8.89,0,14.43,4.56,14.43,12.63,0,8.47-5.3,12.3-16.46,12.3h-8.15V69.8Z"/><path class="cls-2" d="M255.67,42v57h-14.1V42h8.56V93.59h-2.94V45H244.5V96.12h8.23V42Z"/><path class="cls-2" d="M269.19,92.21c5.13,2.36,10.51,3.91,14.5,3.91.25,0,1.88-.25,4.89-.66a14.17,14.17,0,0,0,8.88-7.41l.16-.33a12.94,12.94,0,0,0,1.31-6.11,11.9,11.9,0,0,0-1.22-5.37,16,16,0,0,0-6.77-6.77c-2.2-1.06-3.5-1.63-3.91-1.79L285,67l-1.06-.33c-4.4-1.3-7.17-3.09-8.23-5.29a3.84,3.84,0,0,1-.41-2,6,6,0,0,1,.57-2.93l.08-.17a6.11,6.11,0,0,1,4-3.25,6.77,6.77,0,0,1,2.86-.33c3.09,0,7.33,1.3,12.62,3.91l1.31-2c-5.13-2.85-9.86-4.31-14.18-4.31l-3.26.4a9.32,9.32,0,0,0-5.62,4.65,7.84,7.84,0,0,0-.81,3.83,7.11,7.11,0,0,0,.73,3.26c1.3,2.85,4.48,5,9.61,6.51l1.06.33A44,44,0,0,1,290.78,72a10.15,10.15,0,0,1,5.7,9.53A12.81,12.81,0,0,1,294.85,88c-2.2,3.75-6.27,5.7-11.08,5.7a29.23,29.23,0,0,1-13.28-3.5l.08-.16L272,87.64c5.13,2,9,3.1,11.73,3.1,4.08,0,7-1.55,8.72-4.56a9.79,9.79,0,0,0,1.14-4.57,7.32,7.32,0,0,0-3.91-6.68,25.07,25.07,0,0,0-4-2l-2.2-.82-1.06-.32c-5.95-1.8-9.78-4.49-11.49-8.15a10.25,10.25,0,0,1-1-4.4,10.55,10.55,0,0,1,1.06-5,12,12,0,0,1,7.5-6.28c.73-.41,2.12-.57,4.32-.57,5,0,11.73,2.28,16.7,5.54l1.3.74-4.4,7-1.22-.73c-3.91-2.53-9-4.32-12.47-4.32A6.72,6.72,0,0,0,280,56a3.46,3.46,0,0,0-1.8,3.34l.17.89a9,9,0,0,0,1.79,1.72,16.33,16.33,0,0,0,4.56,2l1.14.33c7.17,2.28,11.9,5.62,14.1,10a21.77,21.77,0,0,1,1.87,7.41,19.84,19.84,0,0,1-1.46,7.09l-.33.57a16.82,16.82,0,0,1-10.76,9,20.33,20.33,0,0,1-5.62.73,37.5,37.5,0,0,1-19.63-6.36L262.83,92,270,80.39l1.23.73c3.91,2.53,9,4.32,12.46,4.32q3.3,0,4.16-2a3.11,3.11,0,0,0,.32-1.63,1.75,1.75,0,0,0-.24-1l-.08-.16c-.74-1.31-2.69-2.45-6-3.51l-1-.32c-7.33-2.2-12.22-5.79-14.75-10.84a14.59,14.59,0,0,1-1.46-6.68,18.37,18.37,0,0,1,1.46-7.09l.25-.57a16.47,16.47,0,0,1,10.75-8.88A14.86,14.86,0,0,1,282.8,42c5.94,0,12.79,2.37,20.69,7.17l-1.55,2.53C294.69,47.23,288.25,45,282.71,45c-.24,0-1.87.24-4.88.65A14.21,14.21,0,0,0,268.94,53l-.16.33a16,16,0,0,0-1.22,6,11.94,11.94,0,0,0,1.22,5.38c2,4.32,6.27,7.41,12.87,9.37l.25.08.81.24c4.32,1.39,6.69,2.85,7.74,5l.17.33a5.78,5.78,0,0,1,.49,2,5.69,5.69,0,0,1-.57,2.77l-.09.16a5.86,5.86,0,0,1-4,3.18,6.7,6.7,0,0,1-2.77.32,26.34,26.34,0,0,1-10.43-2.68L271,84.38,266.91,91Z"/><path class="cls-2" d="M347.89,81.45,339,98.32,314.08,51.38,307.24,96h8.31l2.77-18.25L319,79l1.71,3.17-2.61,16.87H303.81l8.64-56.87.49.81,23.38,44.08L339,92l8.15-15.48.08.57Zm-11.57,17.6H333L317,69,313.1,93.92h-2.93l5.29-34.06Zm20.13,0h-2.93l-4.73-31-9.86,18.25L315.3,41.93h3.34l20.29,38.13L350.34,59Zm2.69,0-.25-1.22H359l-6.51-42.7,2.28-4.32.73,4.89L361.66,96h2.69L363,86.67,356.86,46.9,356.61,45h-1.95l-2.69,5-.25.57-7.17,13.36L339.18,74l-1.72-3.1,3.83-7.09,11.57-21.92h6.28l8.64,57.12Z"/></g><g class="cls-1"><path class="cls-3" d="M151.1,111.33v8.72h8.47v-8.72h5.18V133.6h-5.18v-8.92H151.1v8.92h-5.18V111.33Z"/><path class="cls-3" d="M173.87,111.33h14.56v4.52h-9.35v4.6h6.27v3.7h-6.27v4.92h9.45v4.53H173.87Z"/><path class="cls-3" d="M202.28,111.33h5.44l7.65,22.27H209l-1.18-4.07h-6.86l-1.11,4.07H195Zm-.69,14.46h5.58l-2.89-9.08Z"/><path class="cls-3" d="M222.62,111.33h5.18v17.74h8.53v4.53H222.62Z"/><path class="cls-3" d="M255.85,115.85h-5.64V133.6H245V115.85h-5.51v-4.52h16.37Z"/><path class="cls-3" d="M268.67,111.33v8.72h8.47v-8.72h5.18V133.6h-5.18v-8.92h-8.47v8.92h-5.18V111.33Z"/><path class="cls-3" d="M302.89,111.33h5.18v17.74h8.53v4.53H302.89Z"/><path class="cls-3" d="M329.82,111.33h5.45l7.64,22.27h-6.4l-1.18-4.07h-6.86l-1.11,4.07H322.5Zm-.69,14.46h5.58l-2.89-9.08Z"/><path class="cls-3" d="M350.16,111.33h10.59c4.27,0,6.86,2.36,6.73,6a5.25,5.25,0,0,1-3.08,4.92v.13a5,5,0,0,1,3.38,5.08c0,3.68-2.1,6.17-7,6.17H350.16Zm5.18,9.35h4.53a2.42,2.42,0,0,0,2.49-2.69,2.29,2.29,0,0,0-2.49-2.5h-4.53Zm0,8.85h4.5a2.47,2.47,0,0,0,2.69-2.69,2.5,2.5,0,0,0-2.66-2.65h-4.53Z"/></g><polygon class="cls-2" points="71.72 101.23 106.81 101.23 89.29 70.89 54.21 70.89 71.72 101.23"/><polygon class="cls-4" points="71.14 39.41 54.13 68.87 88.14 68.87 71.14 39.41"/><path class="cls-2" d="M69.53,110.68A8,8,0,0,1,70.86,112a10.33,10.33,0,0,1,1,1.69,7.11,7.11,0,0,1,.84-.72,5.29,5.29,0,0,1-1-3.17A5.17,5.17,0,0,1,77,104.7a5.24,5.24,0,0,1,4.18,8.39,6.87,6.87,0,0,1,1.52,1.57,13,13,0,0,1,2.08,6.76,4.33,4.33,0,0,1,2.64-.9,4.2,4.2,0,0,1,2.81,1.11l.2-.38a2,2,0,0,1,1.75-1,2.2,2.2,0,0,1,.44.05l.25.06a2,2,0,0,1,1.56,2v.17a5,5,0,0,1,0,.92A13.22,13.22,0,0,1,93.7,126l13.1-22.7H71.72l-1.26,2.18a5.68,5.68,0,0,1,.31,1.81A5.43,5.43,0,0,1,69.53,110.68Z"/><path class="cls-4" d="M49.93,132.47a1.46,1.46,0,0,1,0-.2l-16.23-28.1-17,29.43H49.92A3.26,3.26,0,0,1,49.93,132.47Z"/><polygon class="cls-4" points="108.57 104.24 91.62 133.6 125.52 133.6 108.57 104.24"/><path class="cls-2" d="M48.37,121.31l.21-.13a2,2,0,0,1,2.68.52l.13.17a4.28,4.28,0,0,1,3-1.21,4.48,4.48,0,0,1,2.37.73,14.06,14.06,0,0,1,2.53-9,7.67,7.67,0,0,1,1.65-1.71,5.31,5.31,0,0,1-1.18-3.39,5.49,5.49,0,0,1,5.49-5.55,5.58,5.58,0,0,1,4,1.75l.51-.88.08-.14v-.33L52.46,72,35,102.25,47.53,124c0-.28-.08-.57-.1-.87A2,2,0,0,1,48.37,121.31Z"/><path class="cls-2" d="M50,132.27c0,.07,0,.13,0,.2a3,3,0,0,0,0,1.13h.82Z"/><path class="cls-3" d="M71.58,118a24,24,0,0,1,1.34-2.31,5,5,0,0,1,8.17.14,11,11,0,0,1,1.73,5.76,6.93,6.93,0,0,0,3.16,5.3,2.67,2.67,0,0,0,3.58-.54,23.55,23.55,0,0,0,1.94-2.83c.27-.41.48-.87.72-1.3l.25.06a5.21,5.21,0,0,1,0,.79,7.57,7.57,0,0,1-3,5.46,1.23,1.23,0,0,0-.32.89c0,1.92,0,3.85,0,5.77a10.43,10.43,0,0,1-.41,2h-.41l-.75-4.37-.31,0-.78,4.41H86.1a10.24,10.24,0,0,1-.41-1.85c0-1.87,0-3.74,0-5.61a1.56,1.56,0,0,0-.7-1.47c-1.56-1.18-2-3-2.64-4.73a61.25,61.25,0,0,0-2.49-5.71,1.45,1.45,0,0,0-.79-.66,5.94,5.94,0,0,0,.06,1c.69,2.91,1.4,5.82,2.1,8.73l.12.47c.34,1.36.32,1.42-1,1.5-.58,0-.76.24-.79.82-.12,2.11-.27,4.21-.47,6.31a4.16,4.16,0,0,1-.57,1.21,4,4,0,0,1-.62-1.13c-.28-1.9-.49-3.81-.72-5.72a5.6,5.6,0,0,0-.2-1.07c-.56,2.64-.2,5.45-1.4,8l-.33,0a4,4,0,0,1-.35-1c-.2-2.1-.41-4.2-.52-6.31,0-.79-.24-1.14-1.09-1.15s-1.07-.21-.84-1.14c.66-2.7,1.37-5.39,2-8.09a15.11,15.11,0,0,0,.36-2.71c-1.89,1.55-2.26,4-3.26,6h-.26a9.33,9.33,0,0,1-.5-1c-.54-1.51-1-3-1.58-4.54a9.82,9.82,0,0,0-.66-1.24l-.25.05c0,.35,0,.71,0,1.06.12,4.92.28,9.83.35,14.75a37.67,37.67,0,0,1-.34,4.23,2.1,2.1,0,0,1-.5,1.07c-1.42-3.6-1.54-7.44-2.34-11.14l-.22,0c-.09.49-.2,1-.28,1.48-.46,2.66-.9,5.32-1.38,8a14.78,14.78,0,0,1-.52,1.68h-.38a14.68,14.68,0,0,1-.44-1.94,81.35,81.35,0,0,1-.1-13.06c.11-1.93,0-3.88,0-6.06a9.08,9.08,0,0,0-.59,1.14q-1.17,3.52-2.3,7.06a7.41,7.41,0,0,1-2.81,4.35,1.1,1.1,0,0,0-.37.91c.19,1,.5,2,.76,3,.08.3.14.61.21.9-1,.41-1,.41-1.16,1.6-.08.69-.27,1.37-.41,2h-.42c-.17-1.08-.35-2.15-.52-3.23H54.3l-.48,3.2-.39,0c-.16-.67-.34-1.33-.46-2s.17-1.48-.93-1.53a1.15,1.15,0,0,1-.11-.68c.23-1,.51-2.08.77-3.11a1.1,1.1,0,0,0-.5-1.29,7,7,0,0,1-2.71-5.5l.21-.14.51.7a24.53,24.53,0,0,0,2.06,2.94,2.81,2.81,0,0,0,4.33,0,24.6,24.6,0,0,0,2.31-3.44,1,1,0,0,0,0-.61,12.31,12.31,0,0,1,2.06-9,5,5,0,0,1,8.33-.25,20.85,20.85,0,0,1,1.94,3.83A3.46,3.46,0,0,1,71.58,118Z"/><path class="cls-3" d="M68.85,107.24a3.43,3.43,0,0,1-3.53,3.46,3.51,3.51,0,1,1,3.53-3.46Z"/><path class="cls-3" d="M80.26,110a3.23,3.23,0,1,1-3.21-3.28A3.19,3.19,0,0,1,80.26,110Z"/><path class="cls-3" d="M54.39,126.93a2.17,2.17,0,0,1-2.17-2.19,2.25,2.25,0,0,1,2.31-2.08,2.2,2.2,0,0,1,2.21,2.18A2.18,2.18,0,0,1,54.39,126.93Z"/><path class="cls-3" d="M87.38,126.72a2.12,2.12,0,0,1-2.17-2.1,2.16,2.16,0,0,1,2.25-2.12,2.21,2.21,0,0,1,2.18,2.12A2.15,2.15,0,0,1,87.38,126.72Z"/></svg>